<?xml version="1.0" standalone="no"?>
<!DOCTYPE svg PUBLIC "-//W3C//DTD SVG 20010904//EN"
 "http://www.w3.org/TR/2001/REC-SVG-20010904/DTD/svg10.dtd">
<svg version="1.0" xmlns="http://www.w3.org/2000/svg"
 width="512.000000pt" height="512.000000pt" viewBox="0 0 512.000000 512.000000"
 preserveAspectRatio="xMidYMid meet">
<metadata>
Created by potrace 1.14, written by Peter Selinger 2001-2017
</metadata>
<g transform="translate(0.000000,512.000000) scale(0.100000,-0.100000)"
fill="#000000" stroke="none">
<path d="M1293 4955 c-271 -49 -505 -200 -660 -425 -77 -114 -142 -276 -161
-409 -9 -60 -8 -276 1 -321 4 -19 9 -48 12 -63 10 -51 64 -189 100 -254 128
-232 358 -415 606 -483 103 -28 116 -29 254 -34 124 -3 233 12 338 49 39 13
74 22 78 19 7 -4 54 -84 119 -199 12 -21 51 -89 86 -151 35 -61 64 -116 64
-122 0 -6 -17 -21 -37 -33 -76 -47 -175 -136 -261 -235 -139 -160 -234 -359
-280 -584 -27 -129 -24 -383 6 -515 71 -313 249 -582 510 -768 234 -166 471
-238 767 -232 190 3 331 33 483 101 29 13 54 24 57 24 8 0 171 103 210 133 62
47 207 196 252 257 129 176 222 412 240 609 14 150 5 338 -21 425 -8 26 -12
46 -10 46 14 0 -80 226 -137 330 -77 139 -256 328 -387 408 l-32 18 113 185
c176 287 165 270 185 259 73 -43 290 -51 411 -16 227 65 402 246 461 477 42
162 9 370 -83 513 -79 124 -220 232 -362 276 -98 31 -264 36 -360 10 -184 -50
-341 -176 -425 -343 l-45 -89 -120 7 c-66 3 -149 8 -185 10 -36 3 -101 7 -145
9 -147 9 -310 19 -345 21 -19 2 -55 4 -80 4 l-45 1 1 83 c6 301 -129 594 -363
785 -132 108 -297 187 -453 217 -70 13 -285 13 -357 0z m1372 -1220 c39 -2
117 -7 175 -10 58 -4 128 -8 155 -10 131 -8 303 -18 332 -19 l33 0 -2 -66 c-3
-140 34 -268 108 -380 52 -79 75 -105 142 -157 43 -35 49 -43 37 -53 -8 -7
-15 -16 -15 -20 0 -7 -223 -374 -242 -397 -8 -10 -21 -7 -56 11 -57 29 -188
71 -262 85 -30 6 -76 15 -102 19 -70 14 -292 7 -388 -12 -92 -17 -207 -52
-283 -85 l-47 -20 -14 22 c-8 12 -71 121 -140 241 l-125 219 27 14 c83 44 224
180 297 288 65 96 145 278 145 330 0 16 -11 16 225 0z"/>
</g>
</svg>
