<svg width="50" height="50" viewBox="0 0 50 50" fill="none" xmlns="http://www.w3.org/2000/svg">
	<path fill-rule="evenodd" clip-rule="evenodd"
		d="M16.3868 17.4018C15.174 15.2618 16.983 12.6853 19.4553 13.0315L35.4032 15.2648C37.5091 15.5597 38.6529 17.8388 37.6062 19.6541L30.2018 32.4956C29.0403 34.5099 26.0767 34.4993 24.9303 32.4766L16.3868 17.4018ZM34.9759 18.1968L19.028 15.9635L27.5715 31.0383L34.9759 18.1968L36.291 18.9254L34.9759 18.1968Z"
		fill="#13385D" />
	<path
		d="M18.0929 15.3276L19.0973 15.4683L34.7112 17.6548L34.7882 17.5212L35.1371 17.7145L35.2182 17.7594L36.5333 18.4881L36.291 18.9254L36.0487 19.3628L18.0929 15.3276ZM18.0929 15.3276L18.593 16.21L27.1365 31.2848L27.5678 32.0457L28.0046 31.288L35.1635 18.8723L18.0929 15.3276ZM16.8218 17.1553C15.8245 15.3955 17.3018 13.2348 19.3859 13.5267L35.3338 15.76C37.1015 16.0075 38.0363 17.9072 37.173 19.4044L29.7686 32.2458C28.8003 33.9252 26.3209 33.9161 25.3653 32.2301L16.8218 17.1553Z"
		stroke="black" stroke-opacity="0.2" />
	<circle cx="16.5" cy="13.5" r="8.5" fill="url(#paint0_radial_21_140)" />
	<circle cx="16.5" cy="13.5" r="7.5" stroke="black" stroke-opacity="0.2" stroke-width="2" />
	<circle cx="37" cy="17" r="5" fill="url(#paint1_radial_21_140)" />
	<circle cx="37" cy="17" r="4" stroke="black" stroke-opacity="0.2" stroke-width="2" />
	<path
		d="M37 34C37 39.5228 32.5228 44 27 44C21.4772 44 17 39.5228 17 34C17 28.4772 21.4772 24 27 24C32.5228 24 37 28.4772 37 34Z"
		fill="url(#paint2_radial_21_140)" />
	<path
		d="M36 34C36 38.9706 31.9706 43 27 43C22.0294 43 18 38.9706 18 34C18 29.0294 22.0294 25 27 25C31.9706 25 36 29.0294 36 34Z"
		stroke="black" stroke-opacity="0.2" stroke-width="2" />
	<defs>
		<radialGradient id="paint0_radial_21_140" cx="0" cy="0" r="1" gradientUnits="userSpaceOnUse"
			gradientTransform="translate(18.625 15.2) rotate(107.354) scale(7.1243)">
			<stop stop-color="#2B9BB3" />
			<stop offset="1" stop-color="#14497F" />
		</radialGradient>
		<radialGradient id="paint1_radial_21_140" cx="0" cy="0" r="1" gradientUnits="userSpaceOnUse"
			gradientTransform="translate(38.25 18) rotate(107.354) scale(4.19076)">
			<stop stop-color="#2B9BB3" />
			<stop offset="1" stop-color="#14497F" />
		</radialGradient>
		<radialGradient id="paint2_radial_21_140" cx="0" cy="0" r="1" gradientUnits="userSpaceOnUse"
			gradientTransform="translate(29.5 36) rotate(107.354) scale(8.38153)">
			<stop stop-color="#2B9BB3" />
			<stop offset="1" stop-color="#14497F" />
		</radialGradient>
	</defs>
</svg>